<?xml version="1.0" encoding="utf-8"?>
<!-- Generator: Adobe Illustrator 15.0.0, SVG Export Plug-In . SVG Version: 6.00 Build 0)  -->
<!DOCTYPE svg PUBLIC "-//W3C//DTD SVG 1.1//EN" "http://www.w3.org/Graphics/SVG/1.1/DTD/svg11.dtd">
<svg version="1.1" id="Layer_1" xmlns="http://www.w3.org/2000/svg" xmlns:xlink="http://www.w3.org/1999/xlink" x="0px" y="0px"
	 width="50px" height="50px" viewBox="0 0 50 50" enable-background="new 0 0 50 50" xml:space="preserve">
	<path fill="#FFFFFF" d="M36,2.42C31.96,3.26,14.681,7.285,9.041,8.525c-6.84,1.5-6.831,9.165-6.831,9.165v20.97L25,46.4L43.96,30.31
		c0,0-3.17,1.44-3.47-1.42c-0.3-2.859-0.4-3.89-0.4-3.89s-4.939,2.5-8.149,4.29c-2.7,1.55-4.41-1.95-2.03-3.25
		c2.37-1.31,12.609-6.94,14.05-7.54c3.05-1.44,3.05,0.82,3.05,0.82v-8.35C47.01,10.97,43.78,1.09,36,2.42z M25,45.21l-8.27-12.93
		L3.46,37.86c0,0-0.314-14.638,0-21.22c0.424-8.876,11.75-7.52,11.75-7.52S25,10.22,25,22.98C25,33.55,25,45.21,25,45.21z"/>
	<text transform="matrix(1 0 0 1 37.6123 46.4004)" fill="#FFFFFF" font-family="'Caliban'" font-size="36">e</text>
</svg>
